# 
# Wavefront OBJ file
# Converted by the DEEP Exploration Deep Exploration 6.0 6.0.0.5908 Release
# Right Hemisphere, LTD
# http://www.righthemisphere.com/
# 
mtllib model.mtl
# object coffee_cup
g coffee_cup
v -0.41623 0.80568 0.92320
v -0.71430 0.80568 0.64505
v -0.00905 0.67405 1.10558
v -0.00905 0.80568 1.02501
v 0.44129 0.67405 0.99297
v 0.50709 1.90402 1.09933
v 0.77096 0.67405 0.68533
v 0.88494 1.90402 0.74674
v 0.89163 0.67405 0.26509
v 1.02324 1.90402 0.26509
v 0.77096 0.67405 -0.15515
v 0.88494 1.90402 -0.21656
v 0.44129 0.67405 -0.46279
v 0.50709 1.90402 -0.56915
v -0.00905 0.67405 -0.57539
v -0.00905 1.90402 -0.69820
v -0.45939 0.67405 -0.46279
v -0.52520 1.90402 -0.56915
v -0.78906 0.67405 -0.15515
v -0.90304 1.90402 -0.21656
v -0.90973 0.67405 0.26509
v -1.04134 1.90402 0.26509
v -0.78906 0.67405 0.68533
v -0.90304 1.90402 0.74674
v -0.45939 0.67405 0.99297
v -0.52520 1.90402 1.09933
v -0.00905 1.90402 1.22839
v 0.44564 1.90402 1.00001
v 0.77850 1.90402 0.68940
v 0.90034 1.90402 0.26509
v 0.77850 1.90402 -0.15921
v 0.44564 1.90402 -0.46983
v -0.00905 1.90402 -0.58352
v -0.46375 1.90402 -0.46983
v -0.79661 1.90402 -0.15921
v -0.91844 1.90402 0.26509
v -0.79661 1.90402 0.68940
v -0.46375 1.90402 1.00001
v -0.00905 1.90402 1.11370
v 0.39812 0.80568 0.92320
v 0.69619 0.80568 0.64505
v 0.80530 0.80568 0.26509
v 0.69619 0.80568 -0.11487
v 0.39812 0.80568 -0.39302
v -0.00905 0.80568 -0.49483
v -0.41623 0.80568 -0.39302
v -0.71430 0.80568 -0.11487
v -0.82340 0.80568 0.26509
v 0.14107 0.99876 -0.55844
v 0.14107 0.88991 -0.54625
v 0.14107 1.28814 -1.21516
v 0.14107 1.28421 -1.32894
v 0.14107 0.93650 -1.09444
v 0.14107 0.88248 -1.19000
v 0.14107 0.87140 -0.90151
v 0.14107 0.90605 -0.70739
v 0.14107 0.83306 -0.67566
v 0.14107 0.79870 -0.91604
v 0.14107 1.61612 -0.61109
v 0.14107 1.69092 -0.81477
v -0.15918 1.78267 -1.07042
v -0.15918 1.65872 -1.28418
v -0.15918 1.62231 -1.17052
v -0.15918 1.69618 -1.02764
v -0.15918 1.72057 -0.62278
v -0.15918 1.77035 -0.79572
v -0.15918 1.69092 -0.81477
v -0.15918 1.61612 -0.61109
v -0.15918 0.79870 -0.91604
v -0.15918 0.83306 -0.67566
v -0.15918 0.90605 -0.70739
v -0.15918 0.87140 -0.90151
v -0.15918 0.88248 -1.19000
v -0.15918 0.93650 -1.09444
v -0.15918 1.28421 -1.32894
v -0.15918 1.28814 -1.21516
v -0.15918 0.88991 -0.54625
v -0.15918 0.99876 -0.55844
v 0.14107 1.78267 -1.07042
v 0.14107 1.65872 -1.28418
v 0.14107 1.62231 -1.17052
v 0.14107 1.69618 -1.02764
v 0.14107 1.72057 -0.62278
v 0.14107 1.77035 -0.79572
v 0.14107 1.69092 -0.81477
v 0.14107 1.61612 -0.61109
v 0.14107 0.79870 -0.91604
v 0.14107 0.83306 -0.67566
v 0.14107 0.90605 -0.70739
v 0.14107 0.87140 -0.90151
v 0.14107 0.88248 -1.19000
v 0.14107 0.93650 -1.09444
v 0.14107 1.28421 -1.32894
v 0.14107 1.28814 -1.21516
v 0.14107 0.88991 -0.54625
v 0.14107 0.99876 -0.55844
v -0.41623 0.80568 0.92320
v -0.71430 0.80568 0.64505
v -0.00905 0.67405 1.10558
v -0.00905 0.80568 1.02501
v 0.44129 0.67405 0.99297
v 0.77096 0.67405 0.68533
v 0.89163 0.67405 0.26509
v 0.77096 0.67405 -0.15515
v 0.44129 0.67405 -0.46279
v -0.00905 0.67405 -0.57539
v -0.45939 0.67405 -0.46279
v -0.78906 0.67405 -0.15515
v -0.90973 0.67405 0.26509
v -0.78906 0.67405 0.68533
v -0.45939 0.67405 0.99297
v 0.39812 0.80568 0.92320
v 0.69619 0.80568 0.64505
v 0.80530 0.80568 0.26509
v 0.69619 0.80568 -0.11487
v 0.39812 0.80568 -0.39302
v -0.00905 0.80568 -0.49483
v -0.41623 0.80568 -0.39302
v -0.71430 0.80568 -0.11487
v -0.82340 0.80568 0.26509
v 0.50709 1.90402 1.09933
v 0.88494 1.90402 0.74674
v 1.02324 1.90402 0.26509
v 0.88494 1.90402 -0.21656
v 0.50709 1.90402 -0.56915
v -0.00905 1.90402 -0.69820
v -0.52520 1.90402 -0.56915
v -0.90304 1.90402 -0.21656
v -1.04134 1.90402 0.26509
v -0.90304 1.90402 0.74674
v -0.52520 1.90402 1.09933
v -0.00905 1.90402 1.22839
v 0.44564 1.90402 1.00001
v 0.77850 1.90402 0.68940
v 0.90034 1.90402 0.26509
v 0.77850 1.90402 -0.15921
v 0.44564 1.90402 -0.46983
v -0.00905 1.90402 -0.58352
v -0.46375 1.90402 -0.46983
v -0.79661 1.90402 -0.15921
v -0.91844 1.90402 0.26509
v -0.79661 1.90402 0.68940
v -0.46375 1.90402 1.00001
v -0.00905 1.90402 1.11370
v -0.15918 1.78267 -1.07042
v -0.15918 1.65872 -1.28418
v -0.15918 1.62231 -1.17052
v -0.15918 1.69618 -1.02764
v -0.15918 1.72057 -0.62278
v -0.15918 1.77035 -0.79572
v -0.15918 1.69092 -0.81477
v -0.15918 1.61612 -0.61109
v -0.15918 0.79870 -0.91604
v -0.15918 0.83306 -0.67566
v -0.15918 0.90605 -0.70739
v -0.15918 0.87140 -0.90151
v -0.15918 0.88248 -1.19000
v -0.15918 0.93650 -1.09444
v -0.15918 1.28421 -1.32894
v -0.15918 1.28814 -1.21516
v -0.15918 0.88991 -0.54625
v -0.15918 0.99876 -0.55844
v 0.14107 1.78267 -1.07042
v 0.14107 1.65872 -1.28418
v 0.14107 1.62231 -1.17052
v 0.14107 1.69618 -1.02764
v 0.14107 1.72057 -0.62278
v 0.14107 1.77035 -0.79572
# 168 verticies
vt 0.13964 0.36150
vt 0.13964 0.20076
vt 0.09945 0.35073
vt 0.06718 0.40594
vt 0.08525 0.63983
vt 0.06718 0.63983
vt 0.08525 0.40594
vt 0.10331 0.34406
vt 0.13964 0.20846
vt 0.13964 0.35380
vt 0.14721 0.75697
vt 0.15351 0.66607
vt 0.14740 0.66607
vt 0.15351 0.75697
vt 0.18488 0.10404
vt 0.35408 0.91407
vt 0.18488 0.91407
vt 0.35408 0.10404
vt 0.17983 0.21152
vt 0.20924 0.24094
vt 0.14067 0.75697
vt 0.14107 0.66607
vt 0.52328 0.91407
vt 0.52328 0.10404
vt 0.22001 0.28113
vt 0.13356 0.75697
vt 0.13418 0.66607
vt 0.69249 0.91407
vt 0.69249 0.10404
vt 0.20924 0.32131
vt 0.12531 0.75697
vt 0.12612 0.66607
vt 0.86169 0.91407
vt 0.86169 0.10404
vt 0.17983 0.35073
vt 0.11492 0.75697
vt 0.11567 0.66607
vt 0.12645 0.42889
vt 0.17479 0.62938
vt 0.12645 0.62938
vt 0.17479 0.42889
vt 0.10193 0.75697
vt 0.10193 0.66607
vt 0.12621 0.42889
vt 0.17455 0.62938
vt 0.12621 0.62938
vt 0.17455 0.42889
vt 0.07004 0.32131
vt 0.19211 0.75697
vt 0.20509 0.66607
vt 0.19135 0.66607
vt 0.20509 0.75697
vt 0.14364 0.10404
vt 0.31285 0.91407
vt 0.14364 0.91407
vt 0.31285 0.10404
vt 0.05927 0.28113
vt 0.18172 0.75697
vt 0.18091 0.66607
vt 0.48205 0.91407
vt 0.48205 0.10404
vt 0.07004 0.24094
vt 0.17346 0.75697
vt 0.17285 0.66607
vt 0.65125 0.91407
vt 0.65125 0.10404
vt 0.09945 0.21152
vt 0.16635 0.75697
vt 0.16596 0.66607
vt 0.82046 0.91407
vt 0.82046 0.10404
vt 0.15962 0.66607
vt 0.15982 0.75697
vt 0.98413 0.91407
vt 0.98413 0.10404
vt 0.72463 0.48520
vt 0.69526 0.46706
vt 0.70238 0.46295
vt 0.72053 0.49232
vt 0.75503 0.49335
vt 0.75503 0.50157
vt 0.78543 0.48520
vt 0.78954 0.49232
vt 0.80769 0.46295
vt 0.81480 0.46706
vt 0.81583 0.43255
vt 0.82405 0.43255
vt 0.80769 0.40215
vt 0.81480 0.39804
vt 0.78543 0.37990
vt 0.78954 0.37278
vt 0.75503 0.37175
vt 0.75503 0.36353
vt 0.72463 0.37990
vt 0.72053 0.37278
vt 0.70238 0.40215
vt 0.69526 0.39804
vt 0.69423 0.43255
vt 0.68602 0.43255
vt 0.17597 0.21820
vt 0.20257 0.24479
vt 0.17597 0.34406
vt 0.20257 0.31746
vt 0.21231 0.28113
vt 0.07671 0.31746
vt 0.06697 0.28113
vt 0.07671 0.24479
vt 0.10331 0.21820
vt 0.89646 0.38566
vt 0.87730 0.37635
vt 0.87601 0.35681
vt 0.89858 0.37080
vt 0.92216 0.37179
vt 0.93799 0.35797
vt 0.94293 0.29546
vt 0.92956 0.22968
vt 0.90818 0.21751
vt 0.88668 0.22399
vt 0.87018 0.24133
vt 0.92690 0.38797
vt 0.86883 0.22097
vt 0.88316 0.21034
vt 0.90979 0.20391
vt 0.95058 0.36478
vt 0.94014 0.21958
vt 0.95554 0.29473
# 126 texture verticies
vn 0.00000 -1.00000 0.00000
vn 0.00000 -0.03500 0.99939
vn 0.52583 -0.03437 0.84990
vn 0.00000 1.00000 0.00000
vn 0.52594 0.02780 -0.85007
vn 0.00000 0.02831 -0.99960
vn 0.87988 -0.03320 0.47404
vn 0.88004 0.02686 -0.47413
vn 0.99947 -0.03266 0.00000
vn 0.99965 0.02642 0.00000
vn 0.87988 -0.03320 -0.47404
vn 0.88004 0.02686 0.47413
vn 0.52583 -0.03437 -0.84990
vn 0.52594 0.02780 0.85007
vn 0.00000 -0.03500 -0.99939
vn 0.00000 0.02831 0.99960
vn -0.52583 -0.03437 -0.84990
vn -0.52594 0.02780 0.85007
vn -0.87988 -0.03320 -0.47404
vn -0.88004 0.02686 0.47413
vn -0.99947 -0.03266 0.00000
vn -0.99965 0.02642 0.00000
vn -0.87988 -0.03320 0.47404
vn -0.88004 0.02686 -0.47413
vn -0.52583 -0.03437 0.84990
vn -0.52594 0.02780 -0.85007
vn 0.00000 0.90972 0.41521
vn 0.00000 0.77304 0.63435
vn 0.00000 -0.69070 -0.72314
vn 0.00000 -0.88747 -0.46086
vn 0.00000 -0.85997 0.51035
vn 0.00000 -0.28550 0.95838
vn 0.00000 0.03604 0.99935
vn 0.00000 0.39416 0.91904
vn 0.00000 0.98226 0.18753
vn 0.00000 0.69358 -0.72038
vn 0.00000 0.49093 -0.87120
vn 0.00000 0.85157 -0.52424
vn 0.00000 -0.62393 0.78148
vn 0.00000 -0.78474 0.61983
vn 0.00000 -0.97993 -0.19936
vn -1.00000 -0.00000 -0.00000
vn -1.00000 0.00000 0.00000
vn 1.00000 0.00000 0.00000
vn 0.00000 0.26425 -0.96446
vn 0.00000 -0.03893 -0.99924
vn 0.00000 -0.40917 -0.91246
# 47 normals
usemtl material
f  99/1/1 106/2/1 5/3/1
f  3/4/2 6/5/3 27/6/2
f  3/4/2 101/7/3 6/5/3
f  112/8/4 45/9/4 4/10/4
f  38/11/5 100/12/6 97/13/5
f  38/11/5 144/14/6 100/12/6
f  101/15/3 8/16/7 6/17/3
f  101/15/3 102/18/7 8/16/7
f  17/19/1 106/2/1 19/20/1
f  142/21/8 97/13/5 98/22/8
f  142/21/8 38/11/5 97/13/5
f  102/18/7 10/23/9 8/16/7
f  102/18/7 103/24/9 10/23/9
f  19/20/1 106/2/1 21/25/1
f  141/26/10 98/22/8 120/27/10
f  141/26/10 142/21/8 98/22/8
f  103/24/9 12/28/11 10/23/9
f  103/24/9 104/29/11 12/28/11
f  21/25/1 106/2/1 23/30/1
f  140/31/12 120/27/10 47/32/12
f  140/31/12 141/26/10 120/27/10
f  104/29/11 14/33/13 12/28/11
f  104/29/11 105/34/13 14/33/13
f  23/30/1 106/2/1 25/35/1
f  139/36/14 47/32/12 118/37/14
f  139/36/14 140/31/12 47/32/12
f  105/38/13 16/39/15 14/40/13
f  105/38/13 15/41/15 16/39/15
f  25/35/1 106/2/1 99/1/1
f  138/42/16 118/37/14 117/43/16
f  138/42/16 139/36/14 118/37/14
f  15/44/15 18/45/17 16/46/15
f  15/44/15 107/47/17 18/45/17
f  7/48/1 5/3/1 106/2/1
f  137/49/18 117/50/16 116/51/18
f  137/49/18 138/52/16 117/50/16
f  107/53/17 20/54/19 18/55/17
f  107/53/17 108/56/19 20/54/19
f  9/57/1 7/48/1 106/2/1
f  136/58/20 116/51/18 43/59/20
f  136/58/20 137/49/18 116/51/18
f  108/56/19 22/60/21 20/54/19
f  108/56/19 109/61/21 22/60/21
f  11/62/1 9/57/1 106/2/1
f  135/63/22 43/59/20 42/64/22
f  135/63/22 136/58/20 43/59/20
f  109/61/21 24/65/23 22/60/21
f  109/61/21 110/66/23 24/65/23
f  13/67/1 11/62/1 106/2/1
f  134/68/24 42/64/22 41/69/24
f  134/68/24 135/63/22 42/64/22
f  110/66/23 131/70/25 24/65/23
f  110/66/23 111/71/25 131/70/25
f  144/14/6 40/72/26 100/12/6
f  144/14/6 133/73/26 40/72/26
f  133/73/26 41/69/24 40/72/26
f  133/73/26 134/68/24 41/69/24
f  111/71/25 27/74/2 131/70/25
f  111/71/25 3/75/2 27/74/2
f  37/76/4 26/77/4 143/78/4
f  37/76/4 130/79/4 26/77/4
f  36/80/4 130/79/4 37/76/4
f  36/80/4 129/81/4 130/79/4
f  35/82/4 129/81/4 36/80/4
f  35/82/4 128/83/4 129/81/4
f  34/84/4 128/83/4 35/82/4
f  34/84/4 127/85/4 128/83/4
f  33/86/4 127/85/4 34/84/4
f  33/86/4 126/87/4 127/85/4
f  32/88/4 126/87/4 33/86/4
f  32/88/4 125/89/4 126/87/4
f  31/90/4 125/89/4 32/88/4
f  31/90/4 124/91/4 125/89/4
f  30/92/4 124/91/4 31/90/4
f  30/92/4 123/93/4 124/91/4
f  29/94/4 123/93/4 30/92/4
f  29/94/4 122/95/4 123/93/4
f  28/96/4 122/95/4 29/94/4
f  28/96/4 121/97/4 122/95/4
f  39/98/4 121/97/4 28/96/4
f  39/98/4 132/99/4 121/97/4
f  143/78/4 132/99/4 39/98/4
f  143/78/4 26/77/4 132/99/4
f  46/100/4 119/101/4 45/9/4
f  4/10/4 45/9/4 1/102/4
f  1/102/4 45/9/4 2/103/4
f  2/103/4 45/9/4 48/104/4
f  48/104/4 45/9/4 119/101/4
f  113/105/4 45/9/4 112/8/4
f  114/106/4 45/9/4 113/105/4
f  115/107/4 45/9/4 114/106/4
f  44/108/4 45/9/4 115/107/4
f  168/109/27 65/110/28 83/110/28
f  168/109/27 66/109/27 65/110/28
f  86/111/29 151/112/30 85/112/30
f  86/111/29 68/111/29 151/112/30
f  85/112/30 64/113/31 166/113/31
f  85/112/30 151/112/30 64/113/31
f  166/113/31 147/114/32 81/114/32
f  166/113/31 64/113/31 147/114/32
f  81/114/32 76/115/33 51/115/33
f  81/114/32 147/114/32 76/115/33
f  51/115/33 74/116/34 53/116/34
f  51/115/33 76/115/33 74/116/34
f  53/116/34 72/117/35 55/117/35
f  53/116/34 74/116/34 72/117/35
f  55/117/35 155/118/36 89/118/36
f  55/117/35 72/117/35 155/118/36
f  89/118/36 78/119/37 96/119/37
f  89/118/36 155/118/36 78/119/37
f  79/120/38 66/109/27 168/109/27
f  79/120/38 145/120/38 66/109/27
f  95/121/39 70/122/40 57/122/40
f  95/121/39 77/121/39 70/122/40
f  57/122/40 153/123/41 87/123/41
f  57/122/40 70/122/40 153/123/41
f  61/120/42 63/114/42 148/113/42
f  61/120/42 146/124/42 63/114/42
f  149/110/43 67/112/42 152/111/43
f  149/110/43 150/109/42 67/112/42
f  69/123/43 71/118/42 156/117/43
f  69/123/43 154/122/42 71/118/42
f  73/125/43 156/117/43 158/116/43
f  73/125/43 69/123/43 156/117/43
f  75/126/42 158/116/43 160/115/42
f  75/126/42 73/125/43 158/116/43
f  146/124/42 160/115/42 63/114/42
f  146/124/42 75/126/42 160/115/42
f  61/120/42 67/112/42 150/109/42
f  61/120/42 148/113/42 67/112/42
f  161/121/42 71/118/42 154/122/42
f  161/121/42 162/119/42 71/118/42
f  82/113/44 80/124/44 163/120/44
f  82/113/44 165/114/44 80/124/44
f  59/111/44 84/109/44 167/110/44
f  59/111/44 60/112/44 84/109/44
f  90/117/44 88/122/44 58/123/44
f  90/117/44 56/118/44 88/122/44
f  92/116/44 58/123/44 54/125/44
f  92/116/44 90/117/44 58/123/44
f  94/115/44 54/125/44 52/126/44
f  94/115/44 92/116/44 54/125/44
f  165/114/44 52/126/44 80/124/44
f  165/114/44 94/115/44 52/126/44
f  84/109/44 82/113/44 163/120/44
f  84/109/44 60/112/44 82/113/44
f  88/122/44 49/119/44 50/121/44
f  88/122/44 56/118/44 49/119/44
f  164/124/45 145/120/38 79/120/38
f  164/124/45 62/124/45 145/120/38
f  93/126/46 62/124/45 164/124/45
f  93/126/46 159/126/46 62/124/45
f  91/125/47 159/126/46 93/126/46
f  91/125/47 157/125/47 159/126/46
f  87/123/41 157/125/47 91/125/47
f  87/123/41 153/123/41 157/125/47
